<?xml version="1.0" encoding="UTF-8"?>
<svg version="1.1" xmlns="http://www.w3.org/2000/svg" width="647" height="583">
<path d="M0 0 C1.27441452 -0.00335861 2.54882904 -0.00671722 3.86186218 -0.01017761 C7.34203118 -0.01896962 10.82217554 -0.02135394 14.30235457 -0.0219934 C16.48756075 -0.02270764 18.67276082 -0.02484918 20.85796547 -0.02749062 C28.51371273 -0.03673439 36.16944265 -0.04082749 43.82519531 -0.04003906 C50.90612864 -0.03944137 57.98698502 -0.0499347 65.06789893 -0.06578273 C71.18638813 -0.07897721 77.3048526 -0.0842179 83.42335588 -0.08358365 C87.0596664 -0.08333175 90.69590875 -0.08600772 94.33220482 -0.0967617 C139.74096292 -0.22148301 179.24749592 6.28123739 213.01879883 38.93823242 C238.53011676 64.62466705 251.20339923 98.86499321 251.32739258 134.69995117 C251.33309265 135.99611359 251.33879272 137.292276 251.34466553 138.62771606 C251.35511485 141.36599105 251.36099542 144.10423725 251.36450195 146.8425293 C251.36886501 149.60991762 251.38268333 152.37699037 251.40551758 155.14428711 C251.56099998 174.3931354 251.52509642 193.26728063 245.06176758 211.64526367 C244.7664917 212.50490723 244.47121582 213.36455078 244.16699219 214.25024414 C237.61635392 232.51982215 227.42236868 248.08854607 214.12426758 262.14526367 C213.37661133 262.95737305 212.62895508 263.76948242 211.85864258 264.60620117 C191.42003468 286.05997171 160.7327594 301.04150291 130.88858414 302.27948475 C129.21622004 302.28589497 129.21622004 302.28589497 127.5100708 302.29243469 C126.22056519 302.29959 124.93105957 302.3067453 123.60247803 302.31411743 C122.19079614 302.316957 120.77911399 302.31966881 119.36743164 302.32226562 C117.86702317 302.32853847 116.36661623 302.33518599 114.86621094 302.34217834 C109.95744895 302.36311952 105.048687 302.37356986 100.13989258 302.38354492 C98.44406875 302.38759588 96.74824508 302.3917129 95.05242157 302.395895 C87.08449932 302.41492305 79.11658621 302.42916032 71.14864564 302.43750697 C61.97521479 302.44727749 52.80202534 302.47360215 43.62867951 302.51400787 C36.52099227 302.54423277 29.413374 302.55898178 22.30562377 302.56228799 C18.06814434 302.56463069 13.83092353 302.57348948 9.59351349 302.59874916 C5.60429064 302.62214778 1.61549458 302.62621626 -2.3737793 302.61598778 C-3.83015621 302.6154952 -5.28655501 302.62173284 -6.74286652 302.63554382 C-19.9160082 302.7533906 -30.17262877 300.43143709 -39.87573242 291.14526367 C-50.24004368 279.80929824 -51.34271174 267.26259457 -51.77514648 252.59985352 C-51.841986 250.80264936 -51.93753292 249.00627483 -52.06225586 247.2121582 C-53.04117712 232.81672416 -53.04117712 232.81672416 -49.57537842 228.54104614 C-46.08363597 225.62933368 -42.09368312 223.83072514 -37.93566895 222.06170654 C-34.71903891 220.63066358 -31.76636215 218.80486201 -28.75854492 216.98510742 C-26.50671564 215.6829852 -24.25411841 214.38219008 -22.00073242 213.08276367 C-20.82491741 212.40118128 -19.64913611 211.71954075 -18.47338867 211.0378418 C-17.37124023 210.40168945 -16.2690918 209.76553711 -15.13354492 209.11010742 C-14.14499512 208.53897217 -13.15644531 207.96783691 -12.13793945 207.37939453 C-9.87573242 206.14526367 -9.87573242 206.14526367 -8.87573242 206.14526367 C-8.87573242 223.96526367 -8.87573242 241.78526367 -8.87573242 260.14526367 C9.00594434 260.08223872 26.88742886 260.00693006 44.76894569 259.90954876 C53.07292023 259.86471398 61.37685305 259.82527143 69.6809082 259.79882812 C76.92450122 259.77574772 84.16796086 259.74223907 91.41144788 259.69656211 C95.24158939 259.67276427 99.07159993 259.65394802 102.90181351 259.64764977 C106.51834854 259.64153733 110.13454902 259.62132029 113.7509594 259.59098816 C115.68768781 259.57821359 117.62449478 259.57976089 119.56126404 259.58198547 C141.76003393 259.34785992 161.28149199 251.34378098 178.12426758 237.14526367 C178.93508789 236.53424805 179.7459082 235.92323242 180.58129883 235.29370117 C196.65994099 221.70959489 205.56717029 199.52173235 208.12426758 179.14526367 C208.38891175 174.9288649 208.42857764 170.72853401 208.42504883 166.50463867 C208.42933395 165.33878235 208.43361908 164.17292603 208.43803406 162.97174072 C208.44373893 160.52128748 208.44430625 158.07081732 208.43994141 155.62036133 C208.43678757 151.91872527 208.46026965 148.21789475 208.4855957 144.51635742 C208.56578507 115.18086492 202.45192715 89.5931167 181.12426758 68.14526367 C158.30853469 46.64715669 131.86222439 43.37088471 101.72578073 43.43636489 C97.82468776 43.43953145 93.92376893 43.41433614 90.02275085 43.39241028 C82.66745386 43.35524542 75.3123416 43.3428388 67.9569599 43.33978587 C57.99518537 43.33417853 48.0335871 43.28939477 38.07191372 43.24704456 C22.42265355 43.1815273 6.77378749 43.16754778 -8.87573242 43.14526367 C-8.54573242 65.25526367 -8.21573242 87.36526367 -7.87573242 110.14526367 C0.70426758 105.19526367 9.28426758 100.24526367 18.12426758 95.14526367 C23.37504611 96.02039343 25.61337829 96.7007185 29.99145508 99.25073242 C31.11165039 99.89719727 32.2318457 100.54366211 33.38598633 101.2097168 C34.59051559 101.91722515 35.79494001 102.62491203 36.99926758 103.33276367 C38.25791118 104.06339333 39.51703294 104.79319985 40.77661133 105.5222168 C43.96661221 107.37149046 47.15028129 109.23134642 50.33166504 111.09539795 C52.99211602 112.65353269 55.6559522 114.20584901 58.31958008 115.75854492 C61.22808728 117.45480965 64.13596011 119.15210796 67.04174805 120.85302734 C75.29561356 125.68038719 83.59513267 130.42561019 91.90319824 135.15872192 C101.25000963 140.48488555 110.5536242 145.88183323 119.8371582 151.31762695 C127.88099838 156.02083344 135.98020941 160.61812545 144.12426758 165.14526367 C142.79833461 169.54467069 141.0672705 173.2781653 138.75317383 177.24291992 C138.09639648 178.37407227 137.43961914 179.50522461 136.76293945 180.6706543 C136.07097991 181.84974813 135.37892177 183.0287841 134.68676758 184.20776367 C133.99811649 185.39041535 133.30996107 186.57335579 132.62231445 187.7565918 C129.81854406 192.57050903 126.99822069 197.37286926 124.12426758 202.14526367 C120.31866524 201.56459764 117.59769058 200.48104634 114.30004883 198.51245117 C113.36757324 197.96145752 112.43509766 197.41046387 111.47436523 196.84277344 C110.47195801 196.24134521 109.46955078 195.63991699 108.43676758 195.02026367 C106.26400777 193.73440208 104.090816 192.44927015 101.91723633 191.16479492 C100.79494629 190.49915527 99.67265625 189.83351563 98.51635742 189.14770508 C93.11732481 185.96051165 87.68368641 182.83411067 82.24926758 179.70776367 C80.0695543 178.45129798 77.88986695 177.19478729 75.71020508 175.93823242 C71.29973005 173.39745803 66.88800957 170.858858 62.47583008 168.32104492 C61.38270508 167.69085449 60.28958008 167.06066406 59.16333008 166.41137695 C56.98715072 165.16013844 54.80749928 163.91491754 52.62426758 162.67602539 C47.30345135 159.64099168 42.10991381 156.51653449 37.02270508 153.10229492 C36.04849609 152.4682373 35.07428711 151.83417969 34.07055664 151.1809082 C32.24637556 149.98594015 30.44620549 148.75311327 28.67797852 147.47680664 C26.0853306 145.80529809 24.15615698 144.73878246 21.12426758 144.14526367 C16.63760042 145.373388 13.02412521 147.65786057 9.12426758 150.14526367 C7.29112465 151.19054449 5.45523934 152.23103263 3.61645508 153.26635742 C1.74195432 154.36825316 -0.13036799 155.47386142 -2.00073242 156.58276367 C-4.10975528 157.82294604 -6.21914303 159.06250805 -8.32885742 160.30151367 C-9.4071582 160.93573242 -10.48545898 161.56995117 -11.59643555 162.22338867 C-16.96567949 165.3701046 -22.35779884 168.47687716 -27.75073242 171.58276367 C-29.35634033 172.50798828 -29.35634033 172.50798828 -30.99438477 173.4519043 C-33.17642074 174.70922705 -35.35855016 175.96638764 -37.54077148 177.22338867 C-42.11046063 179.85681422 -46.67792339 182.49408621 -51.24511719 185.13183594 C-53.46871006 186.41505473 -55.69313424 187.69683431 -57.91845703 188.97705078 C-62.46505448 191.59289657 -67.00708977 194.2127993 -71.51245117 196.89916992 C-72.17083984 197.28790283 -72.82922852 197.67663574 -73.50756836 198.07714844 C-75.1540373 199.05109403 -76.79451688 200.0351467 -78.43432617 201.02026367 C-80.87573242 202.14526367 -80.87573242 202.14526367 -83.87573242 201.14526367 C-85.52978516 198.75610352 -85.52978516 198.75610352 -87.30932617 195.60620117 C-87.95836914 194.46795898 -88.60741211 193.3297168 -89.27612305 192.15698242 C-89.95538393 190.94486858 -90.63441866 189.73262797 -91.31323242 188.52026367 C-91.98752367 187.33098553 -92.6626452 186.14217772 -93.33862305 184.95385742 C-94.6271897 182.68322164 -95.91045885 180.40956927 -97.18774414 178.13256836 C-98.5437246 175.73283205 -99.93515624 173.36279257 -101.34838867 170.99682617 C-102.87573242 168.14526367 -102.87573242 168.14526367 -102.87573242 165.14526367 C-102.21379883 164.76418457 -101.55186523 164.38310547 -100.86987305 163.99047852 C-98.29023003 162.50492016 -95.71092492 161.01877706 -93.13183594 159.53225708 C-91.96316495 158.85878463 -90.79438276 158.18550512 -89.62548828 157.51242065 C-83.02645109 153.71209448 -76.43768656 149.89605831 -69.87573242 146.03198242 C-68.78196289 145.38890137 -67.68819336 144.74582031 -66.5612793 144.08325195 C-64.46147087 142.84699135 -62.36375853 141.60716258 -60.26831055 140.36352539 C-59.32407227 139.80810059 -58.37983398 139.25267578 -57.40698242 138.68041992 C-56.16271484 137.94384155 -56.16271484 137.94384155 -54.89331055 137.19238281 C-52.87573242 136.14526367 -52.87573242 136.14526367 -50.87573242 136.14526367 C-50.88461487 134.89626785 -50.89349731 133.64727203 -50.90264893 132.36042786 C-50.98399498 120.54746395 -51.04382238 108.73455744 -51.08298111 96.92137623 C-51.1037903 90.84915742 -51.1319857 84.77716607 -51.17749023 78.70507812 C-51.22118623 72.83710708 -51.2449196 66.96935381 -51.25524139 61.10123253 C-51.26259027 58.8706997 -51.27694012 56.6401778 -51.29865265 54.40973854 C-51.4479147 38.43048751 -51.55706364 24.3982345 -39.87573242 12.14526367 C-39.35237305 11.58194336 -38.82901367 11.01862305 -38.28979492 10.43823242 C-27.72080405 0.25591195 -13.75872113 -0.00523424 0 0 Z " fill="#877F70" transform="translate(217.875732421875,139.854736328125)"/>
</svg>
