<?xml version="1.0" encoding="UTF-8"?>
<svg version="1.1" xmlns="http://www.w3.org/2000/svg" width="1024" height="1024">
<path d="M0 0 C1.01342468 0.00182281 2.02684937 0.00364563 3.07098389 0.00552368 C87.21926423 0.25837209 170.48077239 26.32555171 239.0625 75.3125 C240.20878594 76.10929639 241.3559531 76.90482622 242.50390625 77.69921875 C249.16771161 82.3415232 255.49195372 87.22000525 261.6315918 92.53833008 C264.45411141 94.97922565 267.2930361 97.27084794 270.375 99.375 C271.261875 100.014375 272.14875 100.65375 273.0625 101.3125 C273.0625 101.9725 273.0625 102.6325 273.0625 103.3125 C273.65546875 103.57675781 274.2484375 103.84101563 274.859375 104.11328125 C277.14279054 105.35620425 278.53676723 106.61651646 280.3125 108.5 C282.76276592 111.02846589 285.26082051 113.40005876 287.9375 115.6875 C294.53784602 121.39418215 300.58008927 127.60691283 306.2578125 134.2265625 C308.27901276 136.56275501 310.35628839 138.84214851 312.4375 141.125 C317.16545057 146.37916429 321.67912081 151.76777318 326.0625 157.3125 C326.70131104 158.11856689 326.70131104 158.11856689 327.35302734 158.94091797 C341.91393743 177.45233975 354.81206574 197.63169742 366.0625 218.3125 C366.40506836 218.9410791 366.74763672 219.5696582 367.10058594 220.21728516 C393.13922264 268.66876227 408.32369986 323.6548951 413.0625 378.3125 C413.17464844 379.60285156 413.28679688 380.89320313 413.40234375 382.22265625 C415.23979723 406.78069928 414.66465124 431.84906577 412.0625 456.3125 C411.96066406 457.27091797 411.85882812 458.22933594 411.75390625 459.21679688 C408.11702629 492.10586566 401.29343324 525.45630682 389.0625 556.3125 C388.67868164 557.2931543 388.29486328 558.27380859 387.89941406 559.28417969 C376.28005566 588.84403728 362.51377944 616.40398782 344.9375 642.875 C344.5282428 643.49390106 344.1189856 644.11280212 343.69732666 644.75045776 C335.9337974 656.45145865 327.43370797 667.50832172 318.3125 678.1875 C317.05179688 679.66863281 317.05179688 679.66863281 315.765625 681.1796875 C299.85842442 699.66481756 283.18354224 717.10843676 264.0625 732.3125 C262.80289185 733.34938498 261.54521821 734.38862266 260.2890625 735.4296875 C252.13283696 742.17170898 243.87270766 748.43902822 235.0625 754.3125 C233.9273215 755.09481261 232.79323396 755.87871025 231.66015625 756.6640625 C221.17231353 763.87689113 210.20583606 770.17349218 199.0625 776.3125 C197.71671875 777.05935059 197.71671875 777.05935059 196.34375 777.82128906 C136.9979214 810.54249844 68.67456102 826.88024013 1.0625 826.625 C0.04713165 826.62317719 -0.96823669 826.62135437 -2.01437378 826.61947632 C-19.48665288 826.56704496 -36.61338219 825.73239926 -53.9375 823.3125 C-55.79616699 823.05509033 -55.79616699 823.05509033 -57.69238281 822.79248047 C-101.30278207 816.54727484 -144.5643184 803.58697041 -183.79833984 783.40869141 C-185.97037413 782.29565398 -188.15091519 781.20058377 -190.33203125 780.10546875 C-220.15768786 764.95440614 -247.27561767 745.51389361 -272.43798828 723.58251953 C-273.86728997 722.37196476 -275.35276118 721.2286728 -276.83984375 720.08984375 C-277.53207031 719.50332031 -278.22429687 718.91679688 -278.9375 718.3125 C-278.9375 717.6525 -278.9375 716.9925 -278.9375 716.3125 C-279.50428467 716.07096191 -280.07106934 715.82942383 -280.6550293 715.58056641 C-283.39078617 714.06066896 -285.2496634 712.2425479 -287.45703125 710.0234375 C-288.31490234 709.16363281 -289.17277344 708.30382812 -290.05664062 707.41796875 C-290.94544922 706.51691406 -291.83425781 705.61585938 -292.75 704.6875 C-293.62720703 703.80964844 -294.50441406 702.93179688 -295.40820312 702.02734375 C-300.45316972 696.94841702 -305.30220423 691.76692288 -309.9375 686.3125 C-310.39680908 685.78027832 -310.85611816 685.24805664 -311.3293457 684.69970703 C-328.97708285 664.24265779 -343.98923043 642.44585865 -357.9375 619.3125 C-358.32244629 618.68069824 -358.70739258 618.04889648 -359.10400391 617.39794922 C-395.65953947 557.16965951 -412.20602082 483.90971611 -412.125 414 C-412.12439575 413.03339447 -412.1237915 412.06678894 -412.12316895 411.07089233 C-412.08207861 386.77873674 -410.3036281 363.23706117 -405.9375 339.3125 C-405.75848145 338.30010254 -405.57946289 337.28770508 -405.39501953 336.24462891 C-393.7667342 271.04946984 -365.24531823 209.03405392 -323.9375 157.3125 C-322.83341797 155.91837891 -322.83341797 155.91837891 -321.70703125 154.49609375 C-316.93128935 148.55388745 -311.90403067 142.90719884 -306.7109375 137.33203125 C-304.62901687 135.09066209 -302.61944579 132.79656588 -300.62109375 130.48046875 C-296.79075548 126.08601663 -292.74404969 121.93536716 -288.625 117.8125 C-287.91021484 117.08546875 -287.19542969 116.3584375 -286.45898438 115.609375 C-285.77513672 114.92359375 -285.09128906 114.2378125 -284.38671875 113.53125 C-283.77143311 112.91185547 -283.15614746 112.29246094 -282.5222168 111.65429688 C-280.9375 110.3125 -280.9375 110.3125 -278.9375 110.3125 C-278.6075 109.3225 -278.2775 108.3325 -277.9375 107.3125 C-275.92578125 105.47265625 -275.92578125 105.47265625 -273.25 103.375 C-269.44314932 100.34615608 -265.72208018 97.27142932 -262.07373047 94.05419922 C-235.9513507 71.11546102 -204.95599865 52.97527336 -173.48730469 38.51342773 C-170.95858117 37.32242898 -168.47705918 36.0608359 -165.9921875 34.78125 C-160.61689704 32.07460708 -155.08252869 29.94771944 -149.4375 27.875 C-148.38578613 27.48594482 -147.33407227 27.09688965 -146.25048828 26.69604492 C-118.17009635 16.37456894 -89.58076771 8.44738019 -59.9375 4.125 C-58.8841748 3.97015137 -57.83084961 3.81530273 -56.74560547 3.65576172 C-37.87753511 1.04710268 -19.03880222 -0.07201056 0 0 Z M-2.25 158 C-3.06702393 158.25273682 -3.88404785 158.50547363 -4.72583008 158.76586914 C-16.41286249 162.56190125 -26.5371891 168.3953938 -35.9375 176.3125 C-37.04544922 177.09173828 -37.04544922 177.09173828 -38.17578125 177.88671875 C-38.75714844 178.35722656 -39.33851563 178.82773437 -39.9375 179.3125 C-39.9375 179.9725 -39.9375 180.6325 -39.9375 181.3125 C-40.5975 181.3125 -41.2575 181.3125 -41.9375 181.3125 C-43.6265857 183.33879526 -45.1676157 185.35106261 -46.6875 187.5 C-47.13488525 188.13059326 -47.58227051 188.76118652 -48.04321289 189.41088867 C-52.15962768 195.37020786 -55.25621143 201.58246569 -57.9375 208.3125 C-58.24171875 209.06660156 -58.5459375 209.82070313 -58.859375 210.59765625 C-65.24658521 228.03213309 -65.09335208 246.66896938 -65.03515625 264.9609375 C-65.03328609 266.71212727 -65.03186502 268.46331757 -65.03086853 270.21450806 C-65.02709037 274.77475485 -65.01730151 279.33496867 -65.00616455 283.89520264 C-64.99402725 289.39291706 -64.98952576 294.89064265 -64.98371124 300.3883667 C-64.9740862 308.69643391 -64.95489708 317.00442909 -64.9375 325.3125 C-83.0875 325.3125 -101.2375 325.3125 -119.9375 325.3125 C-119.9375 354.3525 -119.9375 383.3925 -119.9375 413.3125 C-101.7875 413.3125 -83.6375 413.3125 -64.9375 413.3125 C-64.9375 500.7625 -64.9375 588.2125 -64.9375 678.3125 C-30.2875 678.3125 4.3625 678.3125 40.0625 678.3125 C40.0625 590.5325 40.0625 502.7525 40.0625 412.3125 C64.4825 412.3125 88.9025 412.3125 114.0625 412.3125 C116.93873436 384.05127529 116.93873436 384.05127529 119.61679077 355.77069092 C119.74532097 354.3615286 119.87581333 352.95254361 120.00845337 351.54376221 C120.1938506 349.56748195 120.37047591 347.59038498 120.546875 345.61328125 C120.69721191 343.96066284 120.69721191 343.96066284 120.85058594 342.2746582 C121.1525821 336.62823452 121.0625 330.96699397 121.0625 325.3125 C94.3325 325.3125 67.6025 325.3125 40.0625 325.3125 C40.145 314.62875 40.2275 303.945 40.3125 292.9375 C40.32829102 289.58287598 40.34408203 286.22825195 40.36035156 282.77197266 C40.38973705 280.09015197 40.42056563 277.40834653 40.453125 274.7265625 C40.45342712 274.04282562 40.45372925 273.35908875 40.45404053 272.65463257 C40.46399382 264.33622834 40.73864378 256.67423078 45.0625 249.3125 C52.80447305 241.93919233 65.40533602 242.98828939 75.3828125 242.8984375 C76.73616664 242.87968422 78.08950959 242.86010787 79.44284058 242.8397522 C82.97063544 242.7888634 86.49846803 242.74900918 90.02642822 242.71160889 C93.64010619 242.67129475 97.25363311 242.62032886 100.8671875 242.5703125 C107.93218054 242.47406697 114.99726882 242.38950133 122.0625 242.3125 C122.08603788 234.26932418 122.10362009 226.22616359 122.11431217 218.18296146 C122.11945292 214.44512244 122.12638239 210.70730755 122.13793945 206.96948242 C122.19289989 188.7236541 122.00597197 170.54064479 121.0625 152.3125 C109.28225893 152.24247403 97.50206874 152.18942497 85.72166061 152.15706348 C80.24942332 152.14151856 74.77733016 152.12048885 69.30517578 152.08618164 C64.00776029 152.05318413 58.71048196 152.03556341 53.4129715 152.02786827 C51.40873307 152.02239624 49.40450071 152.0117151 47.40032196 151.99530983 C30.63618119 151.86375376 13.84482091 152.90719866 -2.25 158 Z " fill="#cbb488" transform="translate(511.9375,98.6875)"/>
</svg>
