<svg width="28" height="28" viewBox="0 0 24 24" fill="#BEA06E" xmlns="http://www.w3.org/2000/svg">
  <path d="M12 7.2A4.8 4.8 0 1 0 16.8 12 4.81 4.81 0 0 0 12 7.2Zm0 7.9A3.1 3.1 0 1 1 15.1 12 3.11 3.11 0 0 1 12 15.1Zm6.2-8.5a1.12 1.12 0 1 1-1.12-1.12A1.12 1.12 0 0 1 18.2 6.6ZM12 2C8.7 2 8.26 2 7 2.06A4.94 4.94 0 0 0 2.06 7C2 8.26 2 8.7 2 12s0 3.74.06 5A4.94 4.94 0 0 0 7 21.94C8.26 22 8.7 22 12 22s3.74 0 5-.06a4.94 4.94 0 0 0 4.94-4.94C22 15.74 22 15.3 22 12s0-3.74-.06-5A4.94 4.94 0 0 0 17 2.06C15.74 2 15.3 2 12 2Zm6.06 3.44a2.46 2.46 0 0 1 1.5 1.5c.1.39.16.82.16 5s0 4.61-.16 5a2.46 2.46 0 0 1-1.5 1.5c-.39.1-.82.16-5 .16s-4.61 0-5-.16a2.46 2.46 0 0 1-1.5-1.5c-.1-.39-.16-.82-.16-5s0-4.61.16-5a2.46 2.46 0 0 1 1.5-1.5c.39-.1.82-.16 5-.16s4.61 0 5 .16Z"></path>
</svg>
